<svg xmlns="http://www.w3.org/2000/svg" viewBox="0 0 1600 1000" preserveAspectRatio="xMidYMid slice" role="img">
  <defs>
    <linearGradient id="sky14" x1="0" y1="0" x2="0" y2="1">
      <stop offset="0%" stop-color="#11645E"/>
      <stop offset="55%" stop-color="#FA7551"/>
      <stop offset="100%" stop-color="#FAB31E"/>
    </linearGradient>
    <radialGradient id="glow13" cx="50%" cy="50%" r="50%">
      <stop offset="0%" stop-color="#FA7551" stop-opacity="0.55"/>
      <stop offset="100%" stop-color="#FA7551" stop-opacity="0"/>
    </radialGradient>
  </defs>
  <rect width="1600" height="1000" fill="url(#sky14)"/>
  <circle cx="500" cy="320" r="149.6" fill="url(#glow13)"/>
  <circle cx="500" cy="320" r="44" fill="#FFC84A"/><path d="M0,1000 L0,560 L0,560 L1150,300 L1600,560 L1600,560 L1600,1000 Z" fill="#137C74" opacity="0.5"/><path d="M0,1000 L0,600 L0,620 L1600,560 L1600,600 L1600,1000 Z" fill="#AC3717" opacity="0.3"/><path d="M120,600 Q570,586 1020,600 L1020,616 Q570,602 120,616 Z" fill="#AC3717" opacity="0.85"/><path d="M127,622 Q570,608 1013,622 L1013,638 Q570,624 127,638 Z" fill="#2A201B" opacity="0.82"/><path d="M134,644 Q570,630 1006,644 L1006,660 Q570,646 134,660 Z" fill="#AC3717" opacity="0.79"/><path d="M141,666 Q570,652 999,666 L999,682 Q570,668 141,682 Z" fill="#2A201B" opacity="0.76"/><path d="M148,688 Q570,674 992,688 L992,704 Q570,690 148,704 Z" fill="#AC3717" opacity="0.73"/><path d="M155,710 Q570,696 985,710 L985,726 Q570,712 155,726 Z" fill="#2A201B" opacity="0.7"/><path d="M162,732 Q570,718 978,732 L978,748 Q570,734 162,748 Z" fill="#AC3717" opacity="0.6699999999999999"/><path d="M169,754 Q570,740 971,754 L971,770 Q570,756 169,770 Z" fill="#2A201B" opacity="0.64"/><path d="M176,776 Q570,762 964,776 L964,792 Q570,778 176,792 Z" fill="#AC3717" opacity="0.61"/><path d="M950,560 Q1230,546 1510,560 L1510,576 Q1230,562 950,576 Z" fill="#137C74" opacity="0.85"/><path d="M957,582 Q1230,568 1503,582 L1503,598 Q1230,584 957,598 Z" fill="#AC3717" opacity="0.82"/><path d="M964,604 Q1230,590 1496,604 L1496,620 Q1230,606 964,620 Z" fill="#137C74" opacity="0.79"/><path d="M971,626 Q1230,612 1489,626 L1489,642 Q1230,628 971,642 Z" fill="#AC3717" opacity="0.76"/><path d="M978,648 Q1230,634 1482,648 L1482,664 Q1230,650 978,664 Z" fill="#137C74" opacity="0.73"/><path d="M985,670 Q1230,656 1475,670 L1475,686 Q1230,672 985,686 Z" fill="#AC3717" opacity="0.7"/><path d="M992,692 Q1230,678 1468,692 L1468,708 Q1230,694 992,708 Z" fill="#137C74" opacity="0.6699999999999999"/><g fill="#2A201B">
    <path d="M220,900 Q231,845.55 237.6,801 L244.2,801 Q229.9,850.5 226.6,900 Z"/>
    <g transform="translate(237.6,801)">
      <path transform="rotate(0)" d="M0,0 Q50.6,-8.8 70.4,11 Q44,6.6000000000000005 0,0 Z"/><path transform="rotate(55)" d="M0,0 Q50.6,-8.8 70.4,11 Q44,6.6000000000000005 0,0 Z"/><path transform="rotate(110)" d="M0,0 Q50.6,-8.8 70.4,11 Q44,6.6000000000000005 0,0 Z"/><path transform="rotate(160)" d="M0,0 Q50.6,-8.8 70.4,11 Q44,6.6000000000000005 0,0 Z"/><path transform="rotate(210)" d="M0,0 Q50.6,-8.8 70.4,11 Q44,6.6000000000000005 0,0 Z"/><path transform="rotate(260)" d="M0,0 Q50.6,-8.8 70.4,11 Q44,6.6000000000000005 0,0 Z"/><path transform="rotate(310)" d="M0,0 Q50.6,-8.8 70.4,11 Q44,6.6000000000000005 0,0 Z"/>
    </g>
  </g><g fill="#2A201B">
    <path d="M1360,880 Q1373,815.65 1380.8,763 L1388.6,763 Q1371.7,821.5 1367.8,880 Z"/>
    <g transform="translate(1380.8,763)">
      <path transform="rotate(0)" d="M0,0 Q59.800000000000004,-10.4 83.2,13 Q52,7.800000000000001 0,0 Z"/><path transform="rotate(55)" d="M0,0 Q59.800000000000004,-10.4 83.2,13 Q52,7.800000000000001 0,0 Z"/><path transform="rotate(110)" d="M0,0 Q59.800000000000004,-10.4 83.2,13 Q52,7.800000000000001 0,0 Z"/><path transform="rotate(160)" d="M0,0 Q59.800000000000004,-10.4 83.2,13 Q52,7.800000000000001 0,0 Z"/><path transform="rotate(210)" d="M0,0 Q59.800000000000004,-10.4 83.2,13 Q52,7.800000000000001 0,0 Z"/><path transform="rotate(260)" d="M0,0 Q59.800000000000004,-10.4 83.2,13 Q52,7.800000000000001 0,0 Z"/><path transform="rotate(310)" d="M0,0 Q59.800000000000004,-10.4 83.2,13 Q52,7.800000000000001 0,0 Z"/>
    </g>
  </g><g fill="#2A201B">
    <path d="M1460,940 Q1469,895.45 1474.4,859 L1479.8000000000002,859 Q1468.1,899.5 1465.4,940 Z"/>
    <g transform="translate(1474.4,859)">
      <path transform="rotate(0)" d="M0,0 Q41.4,-7.2 57.6,9 Q36,5.4 0,0 Z"/><path transform="rotate(55)" d="M0,0 Q41.4,-7.2 57.6,9 Q36,5.4 0,0 Z"/><path transform="rotate(110)" d="M0,0 Q41.4,-7.2 57.6,9 Q36,5.4 0,0 Z"/><path transform="rotate(160)" d="M0,0 Q41.4,-7.2 57.6,9 Q36,5.4 0,0 Z"/><path transform="rotate(210)" d="M0,0 Q41.4,-7.2 57.6,9 Q36,5.4 0,0 Z"/><path transform="rotate(260)" d="M0,0 Q41.4,-7.2 57.6,9 Q36,5.4 0,0 Z"/><path transform="rotate(310)" d="M0,0 Q41.4,-7.2 57.6,9 Q36,5.4 0,0 Z"/>
    </g>
  </g>
</svg>