<svg xmlns="http://www.w3.org/2000/svg" viewBox="0 0 1600 1000" preserveAspectRatio="xMidYMid slice" role="img">
  <defs>
    <linearGradient id="sky59" x1="0" y1="0" x2="0" y2="1">
      <stop offset="0%" stop-color="#11645E"/>
      <stop offset="55%" stop-color="#FA7551"/>
      <stop offset="100%" stop-color="#FAB31E"/>
    </linearGradient>
    <radialGradient id="glow57" cx="50%" cy="50%" r="50%">
      <stop offset="0%" stop-color="#FA7551" stop-opacity="0.55"/>
      <stop offset="100%" stop-color="#FA7551" stop-opacity="0"/>
    </radialGradient>
    <linearGradient id="water58" x1="0" y1="0" x2="0" y2="1">
      <stop offset="0%" stop-color="#EE5A35"/>
      <stop offset="100%" stop-color="#114F4B"/>
    </linearGradient>
  </defs>
  <rect width="1600" height="1000" fill="url(#sky59)"/>
  <circle cx="760" cy="480" r="170" fill="url(#glow57)"/>
  <circle cx="760" cy="480" r="50" fill="#FFC84A"/><rect x="0" y="560" width="1600" height="440" fill="url(#water58)"/><rect x="200" y="600" width="120" height="4" rx="2" fill="#EE5A35" opacity="0.18"/><rect x="540" y="666.6666666666666" width="180" height="4" rx="2" fill="#EE5A35" opacity="0.28"/><rect x="880" y="733.3333333333334" width="240" height="4" rx="2" fill="#EE5A35" opacity="0.18"/><rect x="1220" y="800" width="120" height="4" rx="2" fill="#EE5A35" opacity="0.28"/><rect x="360" y="866.6666666666667" width="180" height="4" rx="2" fill="#EE5A35" opacity="0.18"/><rect x="700" y="933.3333333333334" width="240" height="4" rx="2" fill="#EE5A35" opacity="0.28"/><path d="M0,600 Q-8,564 4,540" stroke="#2A201B" stroke-width="4" fill="none" stroke-linecap="round"/><path d="M47,671 Q39,623 51,591" stroke="#2A201B" stroke-width="4" fill="none" stroke-linecap="round"/><path d="M94,742 Q86,682 98,642" stroke="#2A201B" stroke-width="4" fill="none" stroke-linecap="round"/><path d="M141,813 Q133,777 145,753" stroke="#2A201B" stroke-width="4" fill="none" stroke-linecap="round"/><path d="M188,884 Q180,836 192,804" stroke="#2A201B" stroke-width="4" fill="none" stroke-linecap="round"/><path d="M235,615 Q227,555 239,515" stroke="#2A201B" stroke-width="4" fill="none" stroke-linecap="round"/><path d="M282,686 Q274,650 286,626" stroke="#2A201B" stroke-width="4" fill="none" stroke-linecap="round"/><path d="M329,757 Q321,709 333,677" stroke="#2A201B" stroke-width="4" fill="none" stroke-linecap="round"/><path d="M376,828 Q368,768 380,728" stroke="#2A201B" stroke-width="4" fill="none" stroke-linecap="round"/><path d="M423,899 Q415,863 427,839" stroke="#2A201B" stroke-width="4" fill="none" stroke-linecap="round"/><path d="M470,630 Q462,582 474,550" stroke="#2A201B" stroke-width="4" fill="none" stroke-linecap="round"/><path d="M517,701 Q509,641 521,601" stroke="#2A201B" stroke-width="4" fill="none" stroke-linecap="round"/><path d="M564,772 Q556,736 568,712" stroke="#2A201B" stroke-width="4" fill="none" stroke-linecap="round"/><path d="M611,843 Q603,795 615,763" stroke="#2A201B" stroke-width="4" fill="none" stroke-linecap="round"/><path d="M658,914 Q650,854 662,814" stroke="#2A201B" stroke-width="4" fill="none" stroke-linecap="round"/><path d="M705,645 Q697,609 709,585" stroke="#2A201B" stroke-width="4" fill="none" stroke-linecap="round"/><path d="M752,716 Q744,668 756,636" stroke="#2A201B" stroke-width="4" fill="none" stroke-linecap="round"/><path d="M799,787 Q791,727 803,687" stroke="#2A201B" stroke-width="4" fill="none" stroke-linecap="round"/><path d="M846,858 Q838,822 850,798" stroke="#2A201B" stroke-width="4" fill="none" stroke-linecap="round"/><path d="M893,929 Q885,881 897,849" stroke="#2A201B" stroke-width="4" fill="none" stroke-linecap="round"/><path d="M940,660 Q932,600 944,560" stroke="#2A201B" stroke-width="4" fill="none" stroke-linecap="round"/><path d="M987,731 Q979,695 991,671" stroke="#2A201B" stroke-width="4" fill="none" stroke-linecap="round"/><path d="M1034,802 Q1026,754 1038,722" stroke="#2A201B" stroke-width="4" fill="none" stroke-linecap="round"/><path d="M1081,873 Q1073,813 1085,773" stroke="#2A201B" stroke-width="4" fill="none" stroke-linecap="round"/><path d="M1128,604 Q1120,568 1132,544" stroke="#2A201B" stroke-width="4" fill="none" stroke-linecap="round"/><path d="M1175,675 Q1167,627 1179,595" stroke="#2A201B" stroke-width="4" fill="none" stroke-linecap="round"/><path d="M1222,746 Q1214,686 1226,646" stroke="#2A201B" stroke-width="4" fill="none" stroke-linecap="round"/><path d="M1269,817 Q1261,781 1273,757" stroke="#2A201B" stroke-width="4" fill="none" stroke-linecap="round"/><path d="M1316,888 Q1308,840 1320,808" stroke="#2A201B" stroke-width="4" fill="none" stroke-linecap="round"/><path d="M1363,619 Q1355,559 1367,519" stroke="#2A201B" stroke-width="4" fill="none" stroke-linecap="round"/><path d="M1410,690 Q1402,654 1414,630" stroke="#2A201B" stroke-width="4" fill="none" stroke-linecap="round"/><path d="M1457,761 Q1449,713 1461,681" stroke="#2A201B" stroke-width="4" fill="none" stroke-linecap="round"/><path d="M1504,832 Q1496,772 1508,732" stroke="#2A201B" stroke-width="4" fill="none" stroke-linecap="round"/><path d="M1551,903 Q1543,867 1555,843" stroke="#2A201B" stroke-width="4" fill="none" stroke-linecap="round"/><path d="M1598,634 Q1590,586 1602,554" stroke="#2A201B" stroke-width="4" fill="none" stroke-linecap="round"/><path d="M45,705 Q37,645 49,605" stroke="#2A201B" stroke-width="4" fill="none" stroke-linecap="round"/><path d="M92,776 Q84,740 96,716" stroke="#2A201B" stroke-width="4" fill="none" stroke-linecap="round"/><path d="M139,847 Q131,799 143,767" stroke="#2A201B" stroke-width="4" fill="none" stroke-linecap="round"/><path d="M186,918 Q178,858 190,818" stroke="#2A201B" stroke-width="4" fill="none" stroke-linecap="round"/><path d="M233,649 Q225,613 237,589" stroke="#2A201B" stroke-width="4" fill="none" stroke-linecap="round"/><path d="M866.4,380 Q886,357.6 900,380 Q914,357.6 933.6,380" stroke="#2A201B" stroke-width="4.8999999999999995" fill="none" stroke-linecap="round"/><path d="M946,410 Q960,394 970,410 Q980,394 994,410" stroke="#2A201B" stroke-width="3.5" fill="none" stroke-linecap="round"/><path d="M818.4,420 Q831,405.6 840,420 Q849,405.6 861.6,420" stroke="#2A201B" stroke-width="3.15" fill="none" stroke-linecap="round"/>
</svg>