<svg xmlns="http://www.w3.org/2000/svg" viewBox="0 0 1600 1000" preserveAspectRatio="xMidYMid slice" role="img">
  <defs>
    <linearGradient id="sky68" x1="0" y1="0" x2="0" y2="1">
      <stop offset="0%" stop-color="#882C14"/>
      <stop offset="55%" stop-color="#D2451F"/>
      <stop offset="100%" stop-color="#FAB31E"/>
    </linearGradient>
    <radialGradient id="glow66" cx="50%" cy="50%" r="50%">
      <stop offset="0%" stop-color="#EE5A35" stop-opacity="0.55"/>
      <stop offset="100%" stop-color="#EE5A35" stop-opacity="0"/>
    </radialGradient>
    <linearGradient id="water67" x1="0" y1="0" x2="0" y2="1">
      <stop offset="0%" stop-color="#E89A06"/>
      <stop offset="100%" stop-color="#6A2412"/>
    </linearGradient>
  </defs>
  <rect width="1600" height="1000" fill="url(#sky68)"/>
  <circle cx="940" cy="480" r="170" fill="url(#glow66)"/>
  <circle cx="940" cy="480" r="50" fill="#FFC84A"/><rect x="0" y="560" width="1600" height="440" fill="url(#water67)"/><rect x="200" y="600" width="120" height="4" rx="2" fill="#E89A06" opacity="0.18"/><rect x="540" y="666.6666666666666" width="180" height="4" rx="2" fill="#E89A06" opacity="0.28"/><rect x="880" y="733.3333333333334" width="240" height="4" rx="2" fill="#E89A06" opacity="0.18"/><rect x="1220" y="800" width="120" height="4" rx="2" fill="#E89A06" opacity="0.28"/><rect x="360" y="866.6666666666667" width="180" height="4" rx="2" fill="#E89A06" opacity="0.18"/><rect x="700" y="933.3333333333334" width="240" height="4" rx="2" fill="#E89A06" opacity="0.28"/><path d="M39,600 Q31,564 43,540" stroke="#2A201B" stroke-width="4" fill="none" stroke-linecap="round"/><path d="M86,671 Q78,623 90,591" stroke="#2A201B" stroke-width="4" fill="none" stroke-linecap="round"/><path d="M133,742 Q125,682 137,642" stroke="#2A201B" stroke-width="4" fill="none" stroke-linecap="round"/><path d="M180,813 Q172,777 184,753" stroke="#2A201B" stroke-width="4" fill="none" stroke-linecap="round"/><path d="M227,884 Q219,836 231,804" stroke="#2A201B" stroke-width="4" fill="none" stroke-linecap="round"/><path d="M274,615 Q266,555 278,515" stroke="#2A201B" stroke-width="4" fill="none" stroke-linecap="round"/><path d="M321,686 Q313,650 325,626" stroke="#2A201B" stroke-width="4" fill="none" stroke-linecap="round"/><path d="M368,757 Q360,709 372,677" stroke="#2A201B" stroke-width="4" fill="none" stroke-linecap="round"/><path d="M415,828 Q407,768 419,728" stroke="#2A201B" stroke-width="4" fill="none" stroke-linecap="round"/><path d="M462,899 Q454,863 466,839" stroke="#2A201B" stroke-width="4" fill="none" stroke-linecap="round"/><path d="M509,630 Q501,582 513,550" stroke="#2A201B" stroke-width="4" fill="none" stroke-linecap="round"/><path d="M556,701 Q548,641 560,601" stroke="#2A201B" stroke-width="4" fill="none" stroke-linecap="round"/><path d="M603,772 Q595,736 607,712" stroke="#2A201B" stroke-width="4" fill="none" stroke-linecap="round"/><path d="M650,843 Q642,795 654,763" stroke="#2A201B" stroke-width="4" fill="none" stroke-linecap="round"/><path d="M697,914 Q689,854 701,814" stroke="#2A201B" stroke-width="4" fill="none" stroke-linecap="round"/><path d="M744,645 Q736,609 748,585" stroke="#2A201B" stroke-width="4" fill="none" stroke-linecap="round"/><path d="M791,716 Q783,668 795,636" stroke="#2A201B" stroke-width="4" fill="none" stroke-linecap="round"/><path d="M838,787 Q830,727 842,687" stroke="#2A201B" stroke-width="4" fill="none" stroke-linecap="round"/><path d="M885,858 Q877,822 889,798" stroke="#2A201B" stroke-width="4" fill="none" stroke-linecap="round"/><path d="M932,929 Q924,881 936,849" stroke="#2A201B" stroke-width="4" fill="none" stroke-linecap="round"/><path d="M979,660 Q971,600 983,560" stroke="#2A201B" stroke-width="4" fill="none" stroke-linecap="round"/><path d="M1026,731 Q1018,695 1030,671" stroke="#2A201B" stroke-width="4" fill="none" stroke-linecap="round"/><path d="M1073,802 Q1065,754 1077,722" stroke="#2A201B" stroke-width="4" fill="none" stroke-linecap="round"/><path d="M1120,873 Q1112,813 1124,773" stroke="#2A201B" stroke-width="4" fill="none" stroke-linecap="round"/><path d="M1167,604 Q1159,568 1171,544" stroke="#2A201B" stroke-width="4" fill="none" stroke-linecap="round"/><path d="M1214,675 Q1206,627 1218,595" stroke="#2A201B" stroke-width="4" fill="none" stroke-linecap="round"/><path d="M1261,746 Q1253,686 1265,646" stroke="#2A201B" stroke-width="4" fill="none" stroke-linecap="round"/><path d="M1308,817 Q1300,781 1312,757" stroke="#2A201B" stroke-width="4" fill="none" stroke-linecap="round"/><path d="M1355,888 Q1347,840 1359,808" stroke="#2A201B" stroke-width="4" fill="none" stroke-linecap="round"/><path d="M1402,619 Q1394,559 1406,519" stroke="#2A201B" stroke-width="4" fill="none" stroke-linecap="round"/><path d="M1449,690 Q1441,654 1453,630" stroke="#2A201B" stroke-width="4" fill="none" stroke-linecap="round"/><path d="M1496,761 Q1488,713 1500,681" stroke="#2A201B" stroke-width="4" fill="none" stroke-linecap="round"/><path d="M1543,832 Q1535,772 1547,732" stroke="#2A201B" stroke-width="4" fill="none" stroke-linecap="round"/><path d="M1590,903 Q1582,867 1594,843" stroke="#2A201B" stroke-width="4" fill="none" stroke-linecap="round"/><path d="M37,634 Q29,586 41,554" stroke="#2A201B" stroke-width="4" fill="none" stroke-linecap="round"/><path d="M84,705 Q76,645 88,605" stroke="#2A201B" stroke-width="4" fill="none" stroke-linecap="round"/><path d="M131,776 Q123,740 135,716" stroke="#2A201B" stroke-width="4" fill="none" stroke-linecap="round"/><path d="M178,847 Q170,799 182,767" stroke="#2A201B" stroke-width="4" fill="none" stroke-linecap="round"/><path d="M225,918 Q217,858 229,818" stroke="#2A201B" stroke-width="4" fill="none" stroke-linecap="round"/><path d="M272,649 Q264,613 276,589" stroke="#2A201B" stroke-width="4" fill="none" stroke-linecap="round"/><path d="M956.4,380 Q976,357.6 990,380 Q1004,357.6 1023.6,380" stroke="#2A201B" stroke-width="4.8999999999999995" fill="none" stroke-linecap="round"/><path d="M1036,410 Q1050,394 1060,410 Q1070,394 1084,410" stroke="#2A201B" stroke-width="3.5" fill="none" stroke-linecap="round"/><path d="M908.4,420 Q921,405.6 930,420 Q939,405.6 951.6,420" stroke="#2A201B" stroke-width="3.15" fill="none" stroke-linecap="round"/>
</svg>