<svg xmlns="http://www.w3.org/2000/svg" viewBox="0 0 1600 1000" preserveAspectRatio="xMidYMid slice" role="img">
  <defs>
    <linearGradient id="sky65" x1="0" y1="0" x2="0" y2="1">
      <stop offset="0%" stop-color="#69CEC5"/>
      <stop offset="55%" stop-color="#CFF1ED"/>
      <stop offset="100%" stop-color="#FBF8F3"/>
    </linearGradient>
    <radialGradient id="glow63" cx="50%" cy="50%" r="50%">
      <stop offset="0%" stop-color="#FBF8F3" stop-opacity="0.55"/>
      <stop offset="100%" stop-color="#FBF8F3" stop-opacity="0"/>
    </radialGradient>
    <linearGradient id="water64" x1="0" y1="0" x2="0" y2="1">
      <stop offset="0%" stop-color="#A2E3DC"/>
      <stop offset="100%" stop-color="#1E9A91"/>
    </linearGradient>
  </defs>
  <rect width="1600" height="1000" fill="url(#sky65)"/>
  <circle cx="880" cy="480" r="170" fill="url(#glow63)"/>
  <circle cx="880" cy="480" r="50" fill="#FAB31E"/><rect x="0" y="560" width="1600" height="440" fill="url(#water64)"/><rect x="200" y="600" width="120" height="4" rx="2" fill="#A2E3DC" opacity="0.18"/><rect x="540" y="666.6666666666666" width="180" height="4" rx="2" fill="#A2E3DC" opacity="0.28"/><rect x="880" y="733.3333333333334" width="240" height="4" rx="2" fill="#A2E3DC" opacity="0.18"/><rect x="1220" y="800" width="120" height="4" rx="2" fill="#A2E3DC" opacity="0.28"/><rect x="360" y="866.6666666666667" width="180" height="4" rx="2" fill="#A2E3DC" opacity="0.18"/><rect x="700" y="933.3333333333334" width="240" height="4" rx="2" fill="#A2E3DC" opacity="0.28"/><path d="M26,600 Q18,564 30,540" stroke="#114F4B" stroke-width="4" fill="none" stroke-linecap="round"/><path d="M73,671 Q65,623 77,591" stroke="#114F4B" stroke-width="4" fill="none" stroke-linecap="round"/><path d="M120,742 Q112,682 124,642" stroke="#114F4B" stroke-width="4" fill="none" stroke-linecap="round"/><path d="M167,813 Q159,777 171,753" stroke="#114F4B" stroke-width="4" fill="none" stroke-linecap="round"/><path d="M214,884 Q206,836 218,804" stroke="#114F4B" stroke-width="4" fill="none" stroke-linecap="round"/><path d="M261,615 Q253,555 265,515" stroke="#114F4B" stroke-width="4" fill="none" stroke-linecap="round"/><path d="M308,686 Q300,650 312,626" stroke="#114F4B" stroke-width="4" fill="none" stroke-linecap="round"/><path d="M355,757 Q347,709 359,677" stroke="#114F4B" stroke-width="4" fill="none" stroke-linecap="round"/><path d="M402,828 Q394,768 406,728" stroke="#114F4B" stroke-width="4" fill="none" stroke-linecap="round"/><path d="M449,899 Q441,863 453,839" stroke="#114F4B" stroke-width="4" fill="none" stroke-linecap="round"/><path d="M496,630 Q488,582 500,550" stroke="#114F4B" stroke-width="4" fill="none" stroke-linecap="round"/><path d="M543,701 Q535,641 547,601" stroke="#114F4B" stroke-width="4" fill="none" stroke-linecap="round"/><path d="M590,772 Q582,736 594,712" stroke="#114F4B" stroke-width="4" fill="none" stroke-linecap="round"/><path d="M637,843 Q629,795 641,763" stroke="#114F4B" stroke-width="4" fill="none" stroke-linecap="round"/><path d="M684,914 Q676,854 688,814" stroke="#114F4B" stroke-width="4" fill="none" stroke-linecap="round"/><path d="M731,645 Q723,609 735,585" stroke="#114F4B" stroke-width="4" fill="none" stroke-linecap="round"/><path d="M778,716 Q770,668 782,636" stroke="#114F4B" stroke-width="4" fill="none" stroke-linecap="round"/><path d="M825,787 Q817,727 829,687" stroke="#114F4B" stroke-width="4" fill="none" stroke-linecap="round"/><path d="M872,858 Q864,822 876,798" stroke="#114F4B" stroke-width="4" fill="none" stroke-linecap="round"/><path d="M919,929 Q911,881 923,849" stroke="#114F4B" stroke-width="4" fill="none" stroke-linecap="round"/><path d="M966,660 Q958,600 970,560" stroke="#114F4B" stroke-width="4" fill="none" stroke-linecap="round"/><path d="M1013,731 Q1005,695 1017,671" stroke="#114F4B" stroke-width="4" fill="none" stroke-linecap="round"/><path d="M1060,802 Q1052,754 1064,722" stroke="#114F4B" stroke-width="4" fill="none" stroke-linecap="round"/><path d="M1107,873 Q1099,813 1111,773" stroke="#114F4B" stroke-width="4" fill="none" stroke-linecap="round"/><path d="M1154,604 Q1146,568 1158,544" stroke="#114F4B" stroke-width="4" fill="none" stroke-linecap="round"/><path d="M1201,675 Q1193,627 1205,595" stroke="#114F4B" stroke-width="4" fill="none" stroke-linecap="round"/><path d="M1248,746 Q1240,686 1252,646" stroke="#114F4B" stroke-width="4" fill="none" stroke-linecap="round"/><path d="M1295,817 Q1287,781 1299,757" stroke="#114F4B" stroke-width="4" fill="none" stroke-linecap="round"/><path d="M1342,888 Q1334,840 1346,808" stroke="#114F4B" stroke-width="4" fill="none" stroke-linecap="round"/><path d="M1389,619 Q1381,559 1393,519" stroke="#114F4B" stroke-width="4" fill="none" stroke-linecap="round"/><path d="M1436,690 Q1428,654 1440,630" stroke="#114F4B" stroke-width="4" fill="none" stroke-linecap="round"/><path d="M1483,761 Q1475,713 1487,681" stroke="#114F4B" stroke-width="4" fill="none" stroke-linecap="round"/><path d="M1530,832 Q1522,772 1534,732" stroke="#114F4B" stroke-width="4" fill="none" stroke-linecap="round"/><path d="M1577,903 Q1569,867 1581,843" stroke="#114F4B" stroke-width="4" fill="none" stroke-linecap="round"/><path d="M24,634 Q16,586 28,554" stroke="#114F4B" stroke-width="4" fill="none" stroke-linecap="round"/><path d="M71,705 Q63,645 75,605" stroke="#114F4B" stroke-width="4" fill="none" stroke-linecap="round"/><path d="M118,776 Q110,740 122,716" stroke="#114F4B" stroke-width="4" fill="none" stroke-linecap="round"/><path d="M165,847 Q157,799 169,767" stroke="#114F4B" stroke-width="4" fill="none" stroke-linecap="round"/><path d="M212,918 Q204,858 216,818" stroke="#114F4B" stroke-width="4" fill="none" stroke-linecap="round"/><path d="M259,649 Q251,613 263,589" stroke="#114F4B" stroke-width="4" fill="none" stroke-linecap="round"/><path d="M926.4,380 Q946,357.6 960,380 Q974,357.6 993.6,380" stroke="#114F4B" stroke-width="4.8999999999999995" fill="none" stroke-linecap="round"/><path d="M1006,410 Q1020,394 1030,410 Q1040,394 1054,410" stroke="#114F4B" stroke-width="3.5" fill="none" stroke-linecap="round"/><path d="M878.4,420 Q891,405.6 900,420 Q909,405.6 921.6,420" stroke="#114F4B" stroke-width="3.15" fill="none" stroke-linecap="round"/>
</svg>