<svg xmlns="http://www.w3.org/2000/svg" viewBox="0 0 1600 1000" preserveAspectRatio="xMidYMid slice" role="img">
  <defs>
    <linearGradient id="sky62" x1="0" y1="0" x2="0" y2="1">
      <stop offset="0%" stop-color="#FFC3AF"/>
      <stop offset="55%" stop-color="#FFE3D8"/>
      <stop offset="100%" stop-color="#FFEFC6"/>
    </linearGradient>
    <radialGradient id="glow60" cx="50%" cy="50%" r="50%">
      <stop offset="0%" stop-color="#FFEFC6" stop-opacity="0.55"/>
      <stop offset="100%" stop-color="#FFEFC6" stop-opacity="0"/>
    </radialGradient>
    <linearGradient id="water61" x1="0" y1="0" x2="0" y2="1">
      <stop offset="0%" stop-color="#F4EDE5"/>
      <stop offset="100%" stop-color="#38B2A9"/>
    </linearGradient>
  </defs>
  <rect width="1600" height="1000" fill="url(#sky62)"/>
  <circle cx="820" cy="480" r="170" fill="url(#glow60)"/>
  <circle cx="820" cy="480" r="50" fill="#FFDD88"/><rect x="0" y="560" width="1600" height="440" fill="url(#water61)"/><rect x="200" y="600" width="120" height="4" rx="2" fill="#F4EDE5" opacity="0.18"/><rect x="540" y="666.6666666666666" width="180" height="4" rx="2" fill="#F4EDE5" opacity="0.28"/><rect x="880" y="733.3333333333334" width="240" height="4" rx="2" fill="#F4EDE5" opacity="0.18"/><rect x="1220" y="800" width="120" height="4" rx="2" fill="#F4EDE5" opacity="0.28"/><rect x="360" y="866.6666666666667" width="180" height="4" rx="2" fill="#F4EDE5" opacity="0.18"/><rect x="700" y="933.3333333333334" width="240" height="4" rx="2" fill="#F4EDE5" opacity="0.28"/><path d="M13,600 Q5,564 17,540" stroke="#114F4B" stroke-width="4" fill="none" stroke-linecap="round"/><path d="M60,671 Q52,623 64,591" stroke="#114F4B" stroke-width="4" fill="none" stroke-linecap="round"/><path d="M107,742 Q99,682 111,642" stroke="#114F4B" stroke-width="4" fill="none" stroke-linecap="round"/><path d="M154,813 Q146,777 158,753" stroke="#114F4B" stroke-width="4" fill="none" stroke-linecap="round"/><path d="M201,884 Q193,836 205,804" stroke="#114F4B" stroke-width="4" fill="none" stroke-linecap="round"/><path d="M248,615 Q240,555 252,515" stroke="#114F4B" stroke-width="4" fill="none" stroke-linecap="round"/><path d="M295,686 Q287,650 299,626" stroke="#114F4B" stroke-width="4" fill="none" stroke-linecap="round"/><path d="M342,757 Q334,709 346,677" stroke="#114F4B" stroke-width="4" fill="none" stroke-linecap="round"/><path d="M389,828 Q381,768 393,728" stroke="#114F4B" stroke-width="4" fill="none" stroke-linecap="round"/><path d="M436,899 Q428,863 440,839" stroke="#114F4B" stroke-width="4" fill="none" stroke-linecap="round"/><path d="M483,630 Q475,582 487,550" stroke="#114F4B" stroke-width="4" fill="none" stroke-linecap="round"/><path d="M530,701 Q522,641 534,601" stroke="#114F4B" stroke-width="4" fill="none" stroke-linecap="round"/><path d="M577,772 Q569,736 581,712" stroke="#114F4B" stroke-width="4" fill="none" stroke-linecap="round"/><path d="M624,843 Q616,795 628,763" stroke="#114F4B" stroke-width="4" fill="none" stroke-linecap="round"/><path d="M671,914 Q663,854 675,814" stroke="#114F4B" stroke-width="4" fill="none" stroke-linecap="round"/><path d="M718,645 Q710,609 722,585" stroke="#114F4B" stroke-width="4" fill="none" stroke-linecap="round"/><path d="M765,716 Q757,668 769,636" stroke="#114F4B" stroke-width="4" fill="none" stroke-linecap="round"/><path d="M812,787 Q804,727 816,687" stroke="#114F4B" stroke-width="4" fill="none" stroke-linecap="round"/><path d="M859,858 Q851,822 863,798" stroke="#114F4B" stroke-width="4" fill="none" stroke-linecap="round"/><path d="M906,929 Q898,881 910,849" stroke="#114F4B" stroke-width="4" fill="none" stroke-linecap="round"/><path d="M953,660 Q945,600 957,560" stroke="#114F4B" stroke-width="4" fill="none" stroke-linecap="round"/><path d="M1000,731 Q992,695 1004,671" stroke="#114F4B" stroke-width="4" fill="none" stroke-linecap="round"/><path d="M1047,802 Q1039,754 1051,722" stroke="#114F4B" stroke-width="4" fill="none" stroke-linecap="round"/><path d="M1094,873 Q1086,813 1098,773" stroke="#114F4B" stroke-width="4" fill="none" stroke-linecap="round"/><path d="M1141,604 Q1133,568 1145,544" stroke="#114F4B" stroke-width="4" fill="none" stroke-linecap="round"/><path d="M1188,675 Q1180,627 1192,595" stroke="#114F4B" stroke-width="4" fill="none" stroke-linecap="round"/><path d="M1235,746 Q1227,686 1239,646" stroke="#114F4B" stroke-width="4" fill="none" stroke-linecap="round"/><path d="M1282,817 Q1274,781 1286,757" stroke="#114F4B" stroke-width="4" fill="none" stroke-linecap="round"/><path d="M1329,888 Q1321,840 1333,808" stroke="#114F4B" stroke-width="4" fill="none" stroke-linecap="round"/><path d="M1376,619 Q1368,559 1380,519" stroke="#114F4B" stroke-width="4" fill="none" stroke-linecap="round"/><path d="M1423,690 Q1415,654 1427,630" stroke="#114F4B" stroke-width="4" fill="none" stroke-linecap="round"/><path d="M1470,761 Q1462,713 1474,681" stroke="#114F4B" stroke-width="4" fill="none" stroke-linecap="round"/><path d="M1517,832 Q1509,772 1521,732" stroke="#114F4B" stroke-width="4" fill="none" stroke-linecap="round"/><path d="M1564,903 Q1556,867 1568,843" stroke="#114F4B" stroke-width="4" fill="none" stroke-linecap="round"/><path d="M11,634 Q3,586 15,554" stroke="#114F4B" stroke-width="4" fill="none" stroke-linecap="round"/><path d="M58,705 Q50,645 62,605" stroke="#114F4B" stroke-width="4" fill="none" stroke-linecap="round"/><path d="M105,776 Q97,740 109,716" stroke="#114F4B" stroke-width="4" fill="none" stroke-linecap="round"/><path d="M152,847 Q144,799 156,767" stroke="#114F4B" stroke-width="4" fill="none" stroke-linecap="round"/><path d="M199,918 Q191,858 203,818" stroke="#114F4B" stroke-width="4" fill="none" stroke-linecap="round"/><path d="M246,649 Q238,613 250,589" stroke="#114F4B" stroke-width="4" fill="none" stroke-linecap="round"/><path d="M896.4,380 Q916,357.6 930,380 Q944,357.6 963.6,380" stroke="#114F4B" stroke-width="4.8999999999999995" fill="none" stroke-linecap="round"/><path d="M976,410 Q990,394 1000,410 Q1010,394 1024,410" stroke="#114F4B" stroke-width="3.5" fill="none" stroke-linecap="round"/><path d="M848.4,420 Q861,405.6 870,420 Q879,405.6 891.6,420" stroke="#114F4B" stroke-width="3.15" fill="none" stroke-linecap="round"/>
</svg>