<svg xmlns="http://www.w3.org/2000/svg" viewBox="0 0 1600 1000" preserveAspectRatio="xMidYMid slice" role="img">
  <defs>
    <linearGradient id="sky34" x1="0" y1="0" x2="0" y2="1">
      <stop offset="0%" stop-color="#11645E"/>
      <stop offset="55%" stop-color="#FA7551"/>
      <stop offset="100%" stop-color="#FAB31E"/>
    </linearGradient>
    <radialGradient id="glow33" cx="50%" cy="50%" r="50%">
      <stop offset="0%" stop-color="#FA7551" stop-opacity="0.55"/>
      <stop offset="100%" stop-color="#FA7551" stop-opacity="0"/>
    </radialGradient>
  </defs>
  <rect width="1600" height="1000" fill="url(#sky34)"/>
  <circle cx="300" cy="300" r="136" fill="url(#glow33)"/>
  <circle cx="300" cy="300" r="40" fill="#FFC84A"/><path d="M0,1000 L0,680 L0,700 L1600,680 L1600,680 L1600,1000 Z" fill="#137C74" opacity="0.4"/><rect x="200" y="540" width="70" height="160" fill="#2A201B"/><polygon points="196,540 235,512 274,540" fill="#2A201B"/><rect x="290" y="480" width="90" height="220" fill="#2A201B"/><circle cx="335" cy="480" r="49.50000000000001" fill="#2A201B"/><rect x="331" y="408.5" width="8" height="22" fill="#2A201B"/><rect x="410" y="560" width="60" height="140" fill="#2A201B"/><polygon points="406,560 440,536 474,560" fill="#2A201B"/><rect x="500" y="440" width="100" height="260" fill="#2A201B"/><polygon points="496,440 550,400 604,440" fill="#2A201B"/><rect x="630" y="510" width="80" height="190" fill="#2A201B"/><circle cx="670" cy="510" r="44" fill="#2A201B"/><rect x="666" y="444" width="8" height="22" fill="#2A201B"/><rect x="740" y="550" width="66" height="150" fill="#2A201B"/><polygon points="736,550 773,523.6 810,550" fill="#2A201B"/><rect x="840" y="400" width="120" height="300" fill="#2A201B"/><circle cx="900" cy="400" r="66" fill="#2A201B"/><rect x="896" y="312" width="8" height="22" fill="#2A201B"/><rect x="1000" y="530" width="70" height="170" fill="#2A201B"/><polygon points="996,530 1035,502 1074,530" fill="#2A201B"/><rect x="1100" y="470" width="90" height="230" fill="#2A201B"/><polygon points="1096,470 1145,434 1194,470" fill="#2A201B"/><rect x="1220" y="550" width="66" height="150" fill="#2A201B"/><circle cx="1253" cy="550" r="36.300000000000004" fill="#2A201B"/><rect x="1249" y="491.70000000000005" width="8" height="22" fill="#2A201B"/><rect x="1320" y="490" width="100" height="210" fill="#2A201B"/><polygon points="1316,490 1370,450 1424,490" fill="#2A201B"/><rect x="1460" y="520" width="80" height="180" fill="#2A201B"/><polygon points="1456,520 1500,488 1544,520" fill="#2A201B"/><g fill="#AC3717"><rect x="640" y="560" width="320" height="140" rx="6"/><circle cx="665" cy="600" r="15" fill="#FAB31E"/><circle cx="703" cy="600" r="15" fill="#FAB31E"/><circle cx="741" cy="600" r="15" fill="#FAB31E"/><circle cx="779" cy="600" r="15" fill="#FAB31E"/><circle cx="817" cy="600" r="15" fill="#FAB31E"/><circle cx="855" cy="600" r="15" fill="#FAB31E"/><circle cx="893" cy="600" r="15" fill="#FAB31E"/><circle cx="931" cy="600" r="15" fill="#FAB31E"/></g>
</svg>