<svg xmlns="http://www.w3.org/2000/svg" viewBox="0 0 1600 1000" preserveAspectRatio="xMidYMid slice" role="img">
  <defs>
    <linearGradient id="sky36" x1="0" y1="0" x2="0" y2="1">
      <stop offset="0%" stop-color="#FFC3AF"/>
      <stop offset="55%" stop-color="#FFE3D8"/>
      <stop offset="100%" stop-color="#FFEFC6"/>
    </linearGradient>
    <radialGradient id="glow35" cx="50%" cy="50%" r="50%">
      <stop offset="0%" stop-color="#FFEFC6" stop-opacity="0.55"/>
      <stop offset="100%" stop-color="#FFEFC6" stop-opacity="0"/>
    </radialGradient>
  </defs>
  <rect width="1600" height="1000" fill="url(#sky36)"/>
  <circle cx="350" cy="300" r="136" fill="url(#glow35)"/>
  <circle cx="350" cy="300" r="40" fill="#FFDD88"/><path d="M0,1000 L0,680 L0,700 L1600,680 L1600,680 L1600,1000 Z" fill="#69CEC5" opacity="0.4"/><rect x="200" y="536" width="70" height="160" fill="#114F4B"/><polygon points="196,536 235,508 274,536" fill="#114F4B"/><rect x="290" y="476" width="90" height="220" fill="#114F4B"/><circle cx="335" cy="476" r="49.50000000000001" fill="#114F4B"/><rect x="331" y="404.5" width="8" height="22" fill="#114F4B"/><rect x="410" y="556" width="60" height="140" fill="#114F4B"/><polygon points="406,556 440,532 474,556" fill="#114F4B"/><rect x="500" y="436" width="100" height="260" fill="#114F4B"/><polygon points="496,436 550,396 604,436" fill="#114F4B"/><rect x="630" y="506" width="80" height="190" fill="#114F4B"/><circle cx="670" cy="506" r="44" fill="#114F4B"/><rect x="666" y="440" width="8" height="22" fill="#114F4B"/><rect x="740" y="546" width="66" height="150" fill="#114F4B"/><polygon points="736,546 773,519.6 810,546" fill="#114F4B"/><rect x="840" y="396" width="120" height="300" fill="#114F4B"/><circle cx="900" cy="396" r="66" fill="#114F4B"/><rect x="896" y="308" width="8" height="22" fill="#114F4B"/><rect x="1000" y="526" width="70" height="170" fill="#114F4B"/><polygon points="996,526 1035,498 1074,526" fill="#114F4B"/><rect x="1100" y="466" width="90" height="230" fill="#114F4B"/><polygon points="1096,466 1145,430 1194,466" fill="#114F4B"/><rect x="1220" y="546" width="66" height="150" fill="#114F4B"/><circle cx="1253" cy="546" r="36.300000000000004" fill="#114F4B"/><rect x="1249" y="487.7" width="8" height="22" fill="#114F4B"/><rect x="1320" y="486" width="100" height="210" fill="#114F4B"/><polygon points="1316,486 1370,446 1424,486" fill="#114F4B"/><rect x="1460" y="516" width="80" height="180" fill="#114F4B"/><polygon points="1456,516 1500,484 1544,516" fill="#114F4B"/><g fill="#137C74"><rect x="640" y="560" width="320" height="140" rx="6"/><circle cx="665" cy="600" r="15" fill="#FFEFC6"/><circle cx="703" cy="600" r="15" fill="#FFEFC6"/><circle cx="741" cy="600" r="15" fill="#FFEFC6"/><circle cx="779" cy="600" r="15" fill="#FFEFC6"/><circle cx="817" cy="600" r="15" fill="#FFEFC6"/><circle cx="855" cy="600" r="15" fill="#FFEFC6"/><circle cx="893" cy="600" r="15" fill="#FFEFC6"/><circle cx="931" cy="600" r="15" fill="#FFEFC6"/></g>
</svg>