<svg xmlns="http://www.w3.org/2000/svg" viewBox="0 0 1600 1000" preserveAspectRatio="xMidYMid slice" role="img">
  <defs>
    <linearGradient id="sky42" x1="0" y1="0" x2="0" y2="1">
      <stop offset="0%" stop-color="#11645E"/>
      <stop offset="55%" stop-color="#FA7551"/>
      <stop offset="100%" stop-color="#FAB31E"/>
    </linearGradient>
    <radialGradient id="glow41" cx="50%" cy="50%" r="50%">
      <stop offset="0%" stop-color="#FA7551" stop-opacity="0.55"/>
      <stop offset="100%" stop-color="#FA7551" stop-opacity="0"/>
    </radialGradient>
  </defs>
  <rect width="1600" height="1000" fill="url(#sky42)"/>
  <circle cx="1150" cy="280" r="136" fill="url(#glow41)"/>
  <circle cx="1150" cy="280" r="40" fill="#FFC84A"/><path d="M0,1000 L0,460 L0,560 L400,380 L800,300 L1200,400 L1600,520 L1600,460 L1600,1000 Z" fill="#137C74" opacity="0.55"/><path d="M0,1000 L0,580 L0,640 L600,500 L1600,600 L1600,580 L1600,1000 Z" fill="#AC3717" opacity="0.7"/><path d="M120,940 C260,820 220,700 380,640 C520,590 480,480 640,440 C760,410 720,320 860,300" fill="none" stroke="#2A201B" stroke-width="18" stroke-linecap="round"/>
  <path d="M120,940 C260,820 220,700 380,640 C520,590 480,480 640,440 C760,410 720,320 860,300" fill="none" stroke="#FFFFFF" stroke-width="2.16" stroke-dasharray="18 22" opacity="0.5"/><g fill="#2A201B">
    <polygon points="180,876 148.8,924.72 211.2,924.72"/>
    <polygon points="180,907.92 155.04,951.6 204.96,951.6"/>
    <polygon points="180,934.8 159.72,960 200.28,960"/>
    <rect x="175.2" y="952.8" width="9.6" height="12"/>
  </g><g fill="#2A201B">
    <polygon points="1420,809 1386.2,861.78 1453.8,861.78"/>
    <polygon points="1420,843.58 1392.96,890.9 1447.04,890.9"/>
    <polygon points="1420,872.7 1398.03,900 1441.97,900"/>
    <rect x="1414.8" y="892.2" width="10.4" height="13"/>
  </g><g fill="#2A201B">
    <polygon points="1500,870 1474,910.6 1526,910.6"/>
    <polygon points="1500,896.6 1479.2,933 1520.8,933"/>
    <polygon points="1500,919 1483.1,940 1516.9,940"/>
    <rect x="1496" y="934" width="8" height="10"/>
  </g><g>
    <rect x="1080" y="790" width="60" height="90" fill="#AC3717"/>
    <polygon points="1074,790 1110,748 1146,790" fill="#2A201B"/>
    <rect x="1101" y="839.5" width="18" height="27" fill="#2A201B" opacity="0.7"/>
  </g><g>
    <rect x="1150" y="772" width="66" height="98" fill="#AC3717"/>
    <polygon points="1144,772 1183,725.8 1222,772" fill="#2A201B"/>
    <rect x="1173.1" y="825.9" width="19.8" height="29.4" fill="#2A201B" opacity="0.7"/>
  </g><g>
    <rect x="1220" y="784" width="72" height="106" fill="#AC3717"/>
    <polygon points="1214,784 1256,733.6 1298,784" fill="#2A201B"/>
    <rect x="1245.2" y="842.3" width="21.599999999999998" height="31.799999999999997" fill="#2A201B" opacity="0.7"/>
  </g>
</svg>