<svg xmlns="http://www.w3.org/2000/svg" viewBox="0 0 1600 1000" preserveAspectRatio="xMidYMid slice" role="img">
  <defs>
    <linearGradient id="sky23" x1="0" y1="0" x2="0" y2="1">
      <stop offset="0%" stop-color="#11645E"/>
      <stop offset="55%" stop-color="#FA7551"/>
      <stop offset="100%" stop-color="#FAB31E"/>
    </linearGradient>
    <radialGradient id="glow21" cx="50%" cy="50%" r="50%">
      <stop offset="0%" stop-color="#FA7551" stop-opacity="0.55"/>
      <stop offset="100%" stop-color="#FA7551" stop-opacity="0"/>
    </radialGradient>
    <linearGradient id="water22" x1="0" y1="0" x2="0" y2="1">
      <stop offset="0%" stop-color="#EE5A35"/>
      <stop offset="100%" stop-color="#114F4B"/>
    </linearGradient>
  </defs>
  <rect width="1600" height="1000" fill="url(#sky23)"/>
  <circle cx="1180" cy="260" r="142.79999999999998" fill="url(#glow21)"/>
  <circle cx="1180" cy="260" r="42" fill="#FFC84A"/><path d="M0,1000 L0,460 L0,520 L260,300 L520,430 L820,240 L1120,420 L1400,300 L1600,460 L1600,460 L1600,1000 Z" fill="#137C74" opacity="0.55"/><path d="M410,372 L520,240 L630,372 L564,332.4 L520,376.4 L476,332.4 Z" fill="#FFFFFF" opacity="0.92"/><path d="M690,396 L820,240 L950,396 L872,349.2 L820,401.2 L768,349.2 Z" fill="#FFFFFF" opacity="0.95"/><path d="M1300,420 L1400,300 L1500,420 L1440,384 L1400,424 L1360,384 Z" fill="#FFFFFF" opacity="0.85"/><path d="M0,1000 L0,560 L0,600 L400,480 L900,560 L1600,500 L1600,560 L1600,1000 Z" fill="#AC3717" opacity="0.65"/><rect x="0" y="660" width="1600" height="340" fill="url(#water22)"/><rect x="200" y="700" width="120" height="4" rx="2" fill="#EE5A35" opacity="0.18"/><rect x="540" y="750" width="180" height="4" rx="2" fill="#EE5A35" opacity="0.28"/><rect x="880" y="800" width="240" height="4" rx="2" fill="#EE5A35" opacity="0.18"/><rect x="1220" y="850" width="120" height="4" rx="2" fill="#EE5A35" opacity="0.28"/><rect x="360" y="900" width="180" height="4" rx="2" fill="#EE5A35" opacity="0.18"/><rect x="700" y="950" width="240" height="4" rx="2" fill="#EE5A35" opacity="0.28"/><g fill="#2A201B">
    <polygon points="260,802 223.6,858.84 296.4,858.84"/>
    <polygon points="260,839.24 230.88,890.2 289.12,890.2"/>
    <polygon points="260,870.6 236.34,900 283.66,900"/>
    <rect x="254.4" y="891.6" width="11.2" height="14"/>
  </g><g fill="#2A201B">
    <polygon points="340,843 311.4,887.66 368.6,887.66"/>
    <polygon points="340,872.26 317.12,912.3 362.88,912.3"/>
    <polygon points="340,896.9 321.41,920 358.59,920"/>
    <rect x="335.6" y="913.4" width="8.8" height="11"/>
  </g><g fill="#2A201B">
    <polygon points="1280,809 1246.2,861.78 1313.8,861.78"/>
    <polygon points="1280,843.58 1252.96,890.9 1307.04,890.9"/>
    <polygon points="1280,872.7 1258.03,900 1301.97,900"/>
    <rect x="1274.8" y="892.2" width="10.4" height="13"/>
  </g><g fill="#2A201B">
    <polygon points="1360,860 1334,900.6 1386,900.6"/>
    <polygon points="1360,886.6 1339.2,923 1380.8,923"/>
    <polygon points="1360,909 1343.1,930 1376.9,930"/>
    <rect x="1356" y="924" width="8" height="10"/>
  </g>
</svg>